<svg width="331" height="90" viewBox="0 0 331 90" fill="none" xmlns="http://www.w3.org/2000/svg">
<g filter="url(#filter0_d_40_5572)">
<path d="M318.401 33.4672C317.483 31.7434 316.35 30.1959 315.04 28.8443C313.81 27.5808 312.442 26.5328 310.976 25.7101C307.997 24.0451 304.733 23.2027 301.285 23.2027C297.543 23.2027 294.221 23.9863 291.408 25.5436C289.18 26.7679 286.943 28.5602 284.598 30.9598C282.243 28.5994 280.016 26.8364 277.798 25.5926C274.945 24.0059 271.604 23.2027 267.853 23.2027C264.394 23.2027 261.131 24.0451 258.161 25.7199C255.601 27.1596 253.462 29.1871 251.772 31.763C251.713 31.6552 251.664 31.5573 251.606 31.4496C249.603 28.0313 246.897 25.2987 243.575 23.3301C240.195 21.332 236.511 20.3232 232.623 20.3232C228.735 20.3232 224.944 21.3712 221.525 23.428C218.906 25.0049 216.679 27.1107 214.871 29.6964C213.201 27.2674 211.12 25.2595 208.648 23.712C205.268 21.5867 201.467 20.5093 197.354 20.5093C194.443 20.5093 191.649 21.1361 189.04 22.3702C187.526 21.4398 185.758 20.95 183.901 20.95C181.136 20.95 178.596 22.0372 176.769 24.0157C176.017 24.8286 175.431 25.7395 175.001 26.7189C173.702 25.4652 172.256 24.3585 170.663 23.428C167.107 21.3712 163.16 20.3232 158.92 20.3232C154.68 20.3232 150.733 21.3712 147.177 23.428C145.653 24.3095 144.275 25.3575 143.015 26.5426V19.9314C143.015 17.2086 141.96 14.6915 140.055 12.8404C138.189 11.0284 135.766 10.0784 133.069 10.0784C130.373 10.0784 128.126 11.0186 126.211 12.8012C124.218 14.6719 123.114 17.2086 123.114 19.9314V28.8149H114.673V19.9314C114.673 17.2478 113.608 14.7405 111.683 12.8795C109.817 11.0774 107.365 10.0784 104.786 10.0784C102.207 10.0784 99.5689 11.097 97.7029 12.9579C95.8467 14.8188 94.8306 17.287 94.8306 19.9314V22.5465C93.1991 21.3908 91.2354 20.764 89.1446 20.764C86.4286 20.764 83.9178 21.8119 82.1007 23.7023C80.3226 25.5534 79.3749 27.9432 79.3749 30.617V37.7865C78.7789 37.7375 78.1928 37.6885 77.5968 37.6396V30.617C77.5968 28.0313 76.6198 25.5828 74.832 23.7316C72.9855 21.8217 70.4747 20.764 67.7587 20.764C66.6449 20.764 65.5703 20.95 64.564 21.2831V19.8727C64.564 17.189 63.5088 14.6915 61.6037 12.8501C59.8061 11.1068 57.5591 10.1371 55.0678 10C54.9506 10 54.8333 10 54.7259 10C51.5116 10 48.6686 11.4887 46.7049 14.2018C46.6561 14.2703 46.5974 14.3487 46.5486 14.427L37.3162 28.2762L28.2206 14.4662C28.1815 14.4172 28.1522 14.3585 28.1131 14.3095C27.185 12.9873 25.9833 11.9295 24.5276 11.1655C23.0621 10.4016 21.5087 10.0098 19.8967 10.0098C17.1808 10.0098 14.6602 11.0774 12.7941 13.0069C10.9965 14.8678 10 17.3066 10 19.8531V57.6494C10 60.2644 10.8988 62.6249 12.5988 64.4662C14.4062 66.4251 16.9072 67.5024 19.6427 67.5024C22.3783 67.5024 24.9282 66.4251 26.7453 64.4564C28.4453 62.6151 29.3441 60.2547 29.3441 57.6494V51.4006C30.1647 52.4388 31.1808 53.3105 32.3532 53.9863C33.76 54.7894 35.3036 55.2106 36.8472 55.2106C36.9742 55.2106 37.0915 55.2106 37.2185 55.2106C38.7914 55.2106 40.3448 54.7894 41.7614 53.9863C42.9045 53.3301 43.8912 52.4878 44.7021 51.4789V57.6494C44.7021 60.3722 45.7572 62.8991 47.6623 64.7404C49.5284 66.5524 51.9512 67.5024 54.6575 67.5024C56.3574 67.5024 57.9694 67.1009 59.3958 66.3467C59.2004 67.1596 59.1027 67.9236 59.1027 68.6484C59.1027 70.4995 59.7084 75.0539 65.2283 77.6787C66.7524 78.4525 68.511 79.0304 70.6212 79.4417C72.5361 79.8139 74.5096 80 76.4733 80C82.8822 80 88.2361 78.1097 92.3882 74.3683C95.1237 71.9001 97.0093 68.7561 98.0351 64.9755C99.8327 66.6014 102.168 67.5024 104.698 67.5024C107.228 67.5024 109.651 66.5622 111.537 64.7894C113.54 62.9187 114.653 60.3526 114.653 57.5906V48.2664H123.094V57.5906C123.094 60.3134 124.159 62.8501 126.074 64.7013C127.94 66.5132 130.392 67.5122 132.981 67.5122C135.57 67.5122 138.208 66.4838 140.055 64.6327C141.041 63.6435 141.784 62.4976 142.282 61.2341C143.718 62.7032 145.34 63.9765 147.157 65.0245C150.714 67.0911 154.66 68.1293 158.901 68.1293C163.141 68.1293 167.088 67.0813 170.644 65.0245C171.894 64.2997 173.047 63.4672 174.122 62.5465V70.1469C174.122 72.8208 175.128 75.3085 176.965 77.1498C178.801 78.9912 181.254 80 183.882 80C186.51 80 189.109 78.9422 190.955 77.0225C192.733 75.1714 193.71 72.7326 193.71 70.1371V67.7179C194.931 67.9432 196.182 68.0607 197.462 68.0607C201.516 68.0607 205.287 66.9638 208.677 64.7992C211.11 63.2517 213.162 61.2635 214.823 58.8834C216.689 61.4594 219.063 63.5651 221.915 65.142C225.481 67.1205 229.585 68.1195 234.108 68.1195C237.078 68.1195 240.019 67.522 242.842 66.3467C245.568 65.2106 247.854 63.7414 249.661 61.9785C250.717 61.0284 251.537 59.9412 252.114 58.7561C253.706 61.0284 255.68 62.8404 257.995 64.1528C260.955 65.8374 264.238 66.6797 267.765 66.6797C271.292 66.6797 274.613 65.9256 277.359 64.4564C279.762 63.1636 282.126 61.2831 284.559 58.7169C286.913 61.2047 289.346 63.1244 291.769 64.4172C294.563 65.9158 297.816 66.6797 301.431 66.6797C305.046 66.6797 308.163 65.8276 311.123 64.1528C314.21 62.3996 316.682 59.7845 318.46 56.3565C320.14 53.1342 320.99 49.2948 320.99 44.9363C320.99 40.5779 320.121 36.6993 318.392 33.4574L318.401 33.4672Z" fill="white"/>
</g>
<path d="M37.2772 40.6562L36.8473 40.0097C34.3072 39.6473 31.8159 39.2654 29.3832 38.8834L34.6589 47.091C34.952 47.4632 35.3134 47.7766 35.7531 48.0313C36.1927 48.2761 36.6128 48.3839 37.0329 48.3447C37.4921 48.3839 37.9317 48.2859 38.3714 48.0313C38.811 47.7766 39.1725 47.473 39.4656 47.091L43.52 40.9206C41.527 40.6562 39.573 40.3917 37.6386 40.1175L37.2772 40.6562Z" fill="#576BB5"/>
<path d="M51.541 57.6493C51.541 58.521 51.8341 59.2458 52.4105 59.804C52.9869 60.3623 53.7392 60.6464 54.6575 60.6464C55.5759 60.6464 56.3086 60.3525 56.8655 59.7747C57.4224 59.1968 57.7057 58.4818 57.7057 57.6493V42.6248C55.6247 42.3995 53.5633 42.1645 51.541 41.9294V57.6493Z" fill="#576BB5"/>
<path d="M16.8389 57.6493C16.8389 58.521 17.0929 59.2458 17.6204 59.804C18.1382 60.3623 18.8124 60.6464 19.6428 60.6464C20.5123 60.6464 21.2059 60.3623 21.7335 59.804C22.2513 59.2458 22.5151 58.521 22.5151 57.6493V37.7277C20.5904 37.3848 18.6951 37.042 16.8486 36.6895V57.6395L16.8389 57.6493Z" fill="#576BB5"/>
<path d="M86.1942 47.7179C86.1942 50.0881 85.4224 52.0274 83.8886 53.5259C82.3547 55.0244 80.4008 55.7786 78.0267 55.7786C75.6527 55.7786 73.7476 55.1224 72.5459 53.8099C71.3442 52.4975 70.7385 50.4701 70.7385 47.7179V43.9177C68.7455 43.7414 66.772 43.5553 64.818 43.3594V49.2752C64.818 52.8599 65.7852 55.7492 67.7197 57.9627C69.6541 60.1664 72.3407 61.2732 75.7895 61.2732C78.0756 61.2732 80.0979 60.852 81.8662 60.0195C83.6346 59.187 85.0707 58.0215 86.1942 56.5229V57.7766C86.1942 64.3976 82.9702 67.7081 76.532 67.7081C75.2033 67.7081 74.0407 67.5416 73.0442 67.2086C72.0476 66.8755 70.9046 66.4152 69.615 65.8373C69.3219 65.71 69.0093 65.6513 68.6771 65.6513C68.0909 65.6513 67.5731 65.8373 67.1237 66.2095C66.6645 66.5817 66.3128 67.1302 66.0686 67.8354C65.9806 68.1684 65.9416 68.4426 65.9416 68.6483C65.9416 69.853 66.7134 70.8129 68.2472 71.5181C69.2047 72.0176 70.4259 72.4093 71.9206 72.7032C73.4154 72.997 74.9297 73.1439 76.4733 73.1439C81.1628 73.1439 84.9437 71.8511 87.816 69.2752C90.6785 66.6895 92.1147 62.8011 92.1147 57.5905V45.5631C90.1314 45.4358 88.1482 45.2987 86.1942 45.1615V47.7179Z" fill="#50B0BA"/>
<path d="M101.64 57.5807C101.64 58.4524 101.924 59.187 102.48 59.7649C103.037 60.3525 103.78 60.6366 104.688 60.6366C105.519 60.6366 106.251 60.3427 106.867 59.7649C107.492 59.187 107.805 58.4524 107.805 57.5807V46.4348C105.734 46.3369 103.682 46.2291 101.64 46.1214V57.5807Z" fill="#97B751"/>
<path d="M129.933 57.5807C129.933 58.4524 130.236 59.187 130.832 59.7649C131.438 60.3525 132.151 60.6366 132.981 60.6366C133.89 60.6366 134.642 60.3427 135.219 59.7649C135.805 59.187 136.108 58.4524 136.157 57.5807V47.3653C134.066 47.3261 131.995 47.2771 129.924 47.2281V57.5905L129.933 57.5807Z" fill="#97B751"/>
<path d="M168.035 50.2154C167.097 51.9686 165.837 53.33 164.235 54.3094C162.633 55.2889 160.855 55.7786 158.91 55.7786C156.966 55.7786 155.178 55.2889 153.586 54.3094C151.984 53.33 150.723 51.9686 149.785 50.2154C149.336 49.3731 149.004 48.472 148.769 47.5318C146.747 47.522 144.734 47.5024 142.722 47.473C143.044 49.471 143.679 51.3222 144.647 53.0264C146.102 55.6121 148.086 57.6297 150.596 59.0891C153.107 60.5484 155.882 61.2732 158.91 61.2732C161.939 61.2732 164.714 60.5484 167.224 59.0891C169.735 57.6297 171.719 55.6121 173.174 53.0264C174.151 51.3026 174.786 49.4221 175.109 47.3946C173.106 47.4338 171.093 47.4632 169.071 47.4828C168.836 48.4524 168.494 49.3633 168.035 50.2154Z" fill="#C6B347"/>
<path d="M205.424 50.1175C204.574 51.8511 203.382 53.2125 201.839 54.2115C200.305 55.2105 198.576 55.71 196.67 55.71C194.765 55.71 192.968 55.2203 191.434 54.2409C189.9 53.2614 188.698 51.9 187.848 50.1469C187.389 49.1968 187.057 48.188 186.852 47.1106C184.898 47.1694 182.934 47.2183 180.961 47.2673V70.1371C180.961 71.0088 181.244 71.7335 181.801 72.2918C182.358 72.8501 183.061 73.1341 183.892 73.1341C184.722 73.1341 185.484 72.8403 186.041 72.2624C186.598 71.6748 186.881 70.9696 186.881 70.1371V56.2683C188.044 57.6395 189.558 58.805 191.434 59.7649C193.31 60.7247 195.322 61.2046 197.481 61.2046C200.227 61.2046 202.737 60.4799 205.024 59.0205C207.31 57.5611 209.107 55.5533 210.416 52.997C211.481 50.9108 212.107 48.5993 212.302 46.0626C210.397 46.1704 208.482 46.2683 206.548 46.3662C206.362 47.7179 206.001 48.9813 205.424 50.1371V50.1175Z" fill="#D16854"/>
<path d="M219.317 53.2125C220.704 55.7492 222.677 57.7277 225.237 59.1478C227.797 60.568 230.747 61.2732 234.118 61.2732C236.199 61.2732 238.231 60.852 240.224 60.0195C242.217 59.187 243.819 58.1684 245.021 56.9539C245.851 56.2487 246.271 55.4554 246.271 54.5837C246.271 53.9177 246.027 53.33 245.558 52.8305C245.079 52.331 244.483 52.0763 243.78 52.0763C243.194 52.0763 242.598 52.2624 241.973 52.6346C241.015 53.5553 239.921 54.2996 238.671 54.8873C237.42 55.475 235.808 55.759 233.815 55.759C230.904 55.759 228.442 54.8383 226.429 53.0068C224.416 51.1753 223.264 48.7365 222.971 45.7002H244.904C245.695 45.7002 246.379 45.4358 246.955 44.9167C247.444 44.4759 247.737 43.947 247.844 43.3398C238.123 44.2898 227.904 45.1028 217.265 45.7492C217.412 48.4818 218.105 50.9696 219.317 53.1929V53.2125Z" fill="#C65C91"/>
<path d="M284.608 40.901L282.781 38.9715C280.651 39.3045 278.482 39.6375 276.274 39.951C276.284 39.9608 276.304 39.9706 276.313 39.9901L280.886 44.7991L275.932 49.9901C273.597 52.4877 271.106 53.7316 268.468 53.7316C266.387 53.7316 264.648 52.9774 263.251 51.4789C261.854 49.9803 261.16 47.806 261.16 44.9461C261.16 43.8197 261.287 42.8011 261.512 41.8804C259.402 42.1351 257.262 42.3702 255.093 42.6052C255.015 43.3496 254.986 44.1331 254.986 44.9363C254.986 48.1978 255.572 50.9402 256.735 53.1831C257.907 55.426 259.451 57.091 261.375 58.188C263.3 59.285 265.44 59.8334 267.775 59.8334C270.266 59.8334 272.386 59.3633 274.135 58.423C275.883 57.4828 277.73 55.9941 279.655 53.9568L284.608 48.7659L289.483 53.9568C291.359 55.9451 293.205 57.4142 295.003 58.3839C296.8 59.3535 298.95 59.8334 301.441 59.8334C303.727 59.8334 305.837 59.285 307.762 58.188C309.687 57.091 311.24 55.426 312.403 53.1831C313.575 50.9402 314.151 48.1978 314.151 44.9363C314.151 41.6748 313.556 38.9324 312.364 36.6895C311.738 35.5043 310.986 34.4955 310.146 33.6336C303.219 35.2987 295.501 36.8364 287.099 38.2467L284.598 40.8912L284.608 40.901ZM296.605 37.2379C297.953 36.5229 299.331 36.1704 300.757 36.1704C302.74 36.1704 304.44 36.9245 305.857 38.423C307.274 39.9216 307.987 42.0959 307.987 44.9461C307.987 47.7962 307.293 49.9706 305.896 51.4789C304.499 52.9774 302.789 53.7316 300.757 53.7316C298.119 53.7316 295.628 52.4877 293.293 49.9901L288.34 44.7991L292.912 39.9901C294.026 38.8736 295.257 37.9529 296.605 37.2379Z" fill="#3A3830"/>
<path d="M22.5053 18.2272C22.2122 17.8158 21.8312 17.473 21.3525 17.2281C20.8738 16.9735 20.3853 16.856 19.887 16.856C19.0175 16.856 18.2848 17.1596 17.7084 17.757C17.1222 18.3643 16.8389 19.0597 16.8389 19.853V36.6895C18.6853 37.042 20.5807 37.3848 22.5053 37.7277V28.1586L29.3832 38.8736C31.8159 39.2654 34.3072 39.6375 36.8473 39.9999L22.5053 18.2272Z" fill="#96A5F2"/>
<path d="M56.8459 17.757C56.2598 17.1988 55.5563 16.8951 54.7259 16.856C53.7294 16.856 52.899 17.3163 52.2346 18.2272L37.6386 40.1175C39.573 40.3917 41.5368 40.6562 43.52 40.9206L51.5507 28.7169V41.9196C53.5828 42.1547 55.6345 42.3897 57.7154 42.615V19.853C57.7154 19.0205 57.4224 18.3251 56.8459 17.757Z" fill="#96A5F2"/>
<path d="M91.2647 28.472C90.7078 27.8942 89.9849 27.6003 89.1154 27.6003C88.2459 27.6003 87.5327 27.8844 86.9953 28.4426C86.458 29.0009 86.1845 29.7257 86.1845 30.5974V45.1615C88.1384 45.2987 90.1119 45.4358 92.1049 45.5631V30.6072C92.1049 29.7747 91.8216 29.0695 91.2647 28.4818V28.472Z" fill="#86DFF3"/>
<path d="M70.7385 30.5974C70.7385 29.7649 70.4552 29.0597 69.8983 28.472C69.3414 27.8942 68.6185 27.6003 67.749 27.6003C66.8795 27.6003 66.1663 27.8844 65.6289 28.4426C65.0916 29.0009 64.818 29.7257 64.818 30.5974V43.3594C66.772 43.5553 68.7455 43.7316 70.7385 43.9177V30.5974Z" fill="#86DFF3"/>
<path d="M135.287 17.757C134.701 17.1988 133.958 16.9147 133.04 16.9147C132.21 16.9147 131.487 17.2086 130.861 17.7864C130.236 18.3741 129.924 19.0793 129.924 19.9118V35.6513H107.805V19.9216C107.805 19.0891 107.502 18.3839 106.896 17.7962C106.291 17.2183 105.577 16.9245 104.747 16.9245C103.829 16.9245 103.086 17.2183 102.5 17.7962C101.914 18.3839 101.63 19.0891 101.63 19.9216V46.1312C103.672 46.2389 105.724 46.3467 107.795 46.4446V41.4201H129.914V47.2379C131.985 47.2869 134.056 47.3359 136.147 47.3751V19.9216C136.147 19.0499 135.854 18.3251 135.277 17.7668L135.287 17.757Z" fill="#C7F088"/>
<path d="M173.174 35.475C171.719 32.8501 169.735 30.8129 167.224 29.3535C164.714 27.8942 161.939 27.1694 158.91 27.1694C155.882 27.1694 153.107 27.8942 150.596 29.3535C148.086 30.8129 146.102 32.8501 144.647 35.475C143.191 38.0998 142.468 41.0381 142.468 44.2801C142.468 45.3868 142.556 46.4446 142.722 47.473C144.725 47.5024 146.747 47.522 148.769 47.5318C148.515 46.5132 148.388 45.426 148.388 44.2801C148.388 42.0274 148.857 40.0195 149.785 38.2565C150.723 36.4838 151.984 35.1126 153.586 34.1331C155.188 33.1537 156.956 32.664 158.91 32.664C160.864 32.664 162.642 33.1537 164.235 34.1331C165.837 35.1126 167.097 36.4838 168.035 38.2565C168.973 40.0293 169.432 42.0372 169.432 44.2801C169.432 45.4064 169.305 46.474 169.061 47.4828C171.083 47.4632 173.096 47.4338 175.099 47.3946C175.255 46.3956 175.343 45.3574 175.343 44.2801C175.343 41.0283 174.62 38.0998 173.164 35.475H173.174Z" fill="#FAED7A"/>
<path d="M210.407 35.5337C209.098 32.948 207.3 30.9402 205.014 29.5102C202.728 28.0705 200.178 27.3555 197.354 27.3555C195.195 27.3555 193.153 27.8746 191.248 28.9128C189.333 29.951 187.887 31.2046 186.891 32.664V30.852C186.891 29.9803 186.608 29.2458 186.051 28.6679C185.494 28.09 184.771 27.7962 183.901 27.7962C183.032 27.7962 182.319 28.09 181.781 28.6679C181.244 29.2556 180.97 29.9803 180.97 30.852V47.2771C182.944 47.2281 184.908 47.1792 186.862 47.1204C186.686 46.2193 186.578 45.2693 186.578 44.2801C186.578 42.1155 187.008 40.1566 187.858 38.4035C188.708 36.6503 189.9 35.2889 191.444 34.3094C192.977 33.33 194.726 32.8403 196.68 32.8403C198.634 32.8403 200.315 33.3398 201.848 34.3388C203.382 35.3378 204.574 36.6992 205.434 38.4328C206.284 40.1664 206.714 42.1057 206.714 44.2703C206.714 44.9852 206.645 45.6708 206.557 46.3467C208.482 46.2487 210.407 46.1508 212.312 46.043C212.361 45.4652 212.39 44.8677 212.39 44.2703C212.39 41.0185 211.735 38.1096 210.426 35.5239L210.407 35.5337Z" fill="#FF8860"/>
<path d="M245.705 34.9069C244.288 32.4877 242.422 30.5974 240.097 29.2262C237.772 27.855 235.28 27.1694 232.623 27.1694C229.966 27.1694 227.396 27.8746 225.051 29.2947C222.707 30.7149 220.811 32.7423 219.385 35.3868C217.949 38.0313 217.236 41.1067 217.236 44.6033C217.236 45.0048 217.245 45.3966 217.265 45.7786C227.894 45.1322 238.123 44.329 247.844 43.3692C247.864 43.2614 247.893 43.1537 247.893 43.0362C247.854 40.0391 247.121 37.3359 245.714 34.9167L245.705 34.9069ZM241.592 40.7149H223.215C223.752 37.9627 224.876 35.9353 226.576 34.6229C228.275 33.3104 230.288 32.6542 232.623 32.6542C234.958 32.6542 236.873 33.3594 238.631 34.7796C240.4 36.1997 241.386 38.0117 241.592 40.2154V40.7149Z" fill="#FF9BC4"/>
<path d="M263.329 38.4524C264.775 36.9245 266.465 36.1606 268.39 36.1606C269.807 36.1606 271.194 36.5034 272.542 37.189C273.871 37.8648 275.121 38.7854 276.274 39.9412C278.482 39.618 280.651 39.2947 282.781 38.9617L280.426 36.4642C278.297 34.2213 276.313 32.5954 274.486 31.5768C272.659 30.5582 270.451 30.0489 267.862 30.0489C265.576 30.0489 263.456 30.5974 261.502 31.6944C259.548 32.7913 257.976 34.4563 256.784 36.6992C255.885 38.3839 255.328 40.3525 255.103 42.615C257.272 42.38 259.412 42.1351 261.522 41.8902C261.874 40.519 262.47 39.3731 263.339 38.4622L263.329 38.4524Z" fill="#BFBFBF"/>
<path d="M301.295 30.0587C298.706 30.0587 296.507 30.5582 294.71 31.5474C292.912 32.5367 290.939 34.1821 288.809 36.474L287.119 38.2565C295.521 36.8462 303.239 35.2987 310.165 33.6434C309.413 32.8697 308.583 32.2134 307.655 31.7041C305.701 30.6072 303.581 30.0587 301.295 30.0587Z" fill="#BFBFBF"/>
<defs>
<filter id="filter0_d_40_5572" x="0" y="0" width="330.99" height="90" filterUnits="userSpaceOnUse" color-interpolation-filters="sRGB">
<feFlood flood-opacity="0" result="BackgroundImageFix"/>
<feColorMatrix in="SourceAlpha" type="matrix" values="0 0 0 0 0 0 0 0 0 0 0 0 0 0 0 0 0 0 127 0" result="hardAlpha"/>
<feOffset/>
<feGaussianBlur stdDeviation="5"/>
<feComposite in2="hardAlpha" operator="out"/>
<feColorMatrix type="matrix" values="0 0 0 0 0 0 0 0 0 0 0 0 0 0 0 0 0 0 0.5 0"/>
<feBlend mode="normal" in2="BackgroundImageFix" result="effect1_dropShadow_40_5572"/>
<feBlend mode="normal" in="SourceGraphic" in2="effect1_dropShadow_40_5572" result="shape"/>
</filter>
</defs>
</svg>
